PathFileType	4	(X/Y/Z)	E:/New_biomech_experiments/27_06_2024_Shreyas_Arm26_updated ground/Afternoon session/Neeraj_PP_27_6_24_elbow_flexion_t01.trc	
DataRate	CameraRate	NumFrames	NumMarkers	Units	OrigDataRate	OrigDataStartFrame	OrigNumFrames	
120.00	120.00	80	4	m	120.00	4894	6524	
Frame#	Time	MarkerSet_r_acromion			MarkerSet_r_humerus_epicondyle			MarkerSet_r_radius_styloid			MarkerSet_RHAND			
		X1	Y1	Z1	X2	Y2	Z2	X3	Y3	Z3	X4	Y4	Z4	

4894	40.775	-0.01313	0.77669	0.23722	-0.03328	0.43497	0.26079	0.23400	0.44075	0.25109	0.31583	0.46870	0.20355 
4895	40.783	-0.01310	0.77672	0.23723	-0.03324	0.43500	0.26083	0.23405	0.44079	0.25109	0.31587	0.46874	0.20353 
4896	40.792	-0.01306	0.77674	0.23725	-0.03320	0.43502	0.26087	0.23409	0.44083	0.25109	0.31590	0.46878	0.20352 
4897	40.800	-0.01301	0.77675	0.23727	-0.03315	0.43505	0.26091	0.23414	0.44086	0.25109	0.31594	0.46882	0.20351 
4898	40.808	-0.01296	0.77676	0.23729	-0.03311	0.43508	0.26094	0.23418	0.44089	0.25109	0.31598	0.46885	0.20350 
4899	40.817	-0.01290	0.77675	0.23732	-0.03307	0.43511	0.26097	0.23422	0.44091	0.25109	0.31602	0.46888	0.20349 
4900	40.825	-0.01284	0.77674	0.23735	-0.03303	0.43514	0.26100	0.23426	0.44094	0.25109	0.31606	0.46890	0.20349 
4901	40.833	-0.01279	0.77676	0.23737	-0.03299	0.43517	0.26103	0.23430	0.44096	0.25109	0.31609	0.46892	0.20348 
4902	40.842	-0.01276	0.77679	0.23738	-0.03296	0.43519	0.26106	0.23433	0.44098	0.25109	0.31612	0.46894	0.20347 
4903	40.850	-0.01273	0.77682	0.23739	-0.03292	0.43522	0.26109	0.23436	0.44100	0.25109	0.31615	0.46897	0.20345 
4904	40.858	-0.01269	0.77683	0.23741	-0.03289	0.43524	0.26111	0.23439	0.44102	0.25109	0.31618	0.46899	0.20344 
4905	40.867	-0.01265	0.77684	0.23743	-0.03286	0.43525	0.26114	0.23442	0.44104	0.25108	0.31620	0.46901	0.20343 
4906	40.875	-0.01263	0.77686	0.23744	-0.03284	0.43527	0.26117	0.23444	0.44107	0.25108	0.31622	0.46903	0.20341 
4907	40.883	-0.01260	0.77688	0.23745	-0.03282	0.43529	0.26120	0.23447	0.44109	0.25108	0.31623	0.46905	0.20339 
4908	40.892	-0.01257	0.77688	0.23747	-0.03280	0.43530	0.26123	0.23449	0.44111	0.25108	0.31624	0.46906	0.20337 
4909	40.900	-0.01253	0.77688	0.23750	-0.03278	0.43531	0.26126	0.23451	0.44112	0.25107	0.31626	0.46907	0.20335 
4910	40.908	-0.01251	0.77688	0.23752	-0.03277	0.43533	0.26128	0.23453	0.44113	0.25107	0.31627	0.46907	0.20333 
4911	40.917	-0.01250	0.77689	0.23754	-0.03275	0.43534	0.26131	0.23455	0.44113	0.25107	0.31628	0.46907	0.20332 
4912	40.925	-0.01250	0.77692	0.23755	-0.03274	0.43535	0.26133	0.23456	0.44113	0.25107	0.31630	0.46905	0.20331 
4913	40.933	-0.01249	0.77693	0.23756	-0.03272	0.43536	0.26136	0.23457	0.44112	0.25107	0.31631	0.46903	0.20330 
4914	40.942	-0.01248	0.77693	0.23759	-0.03272	0.43537	0.26138	0.23459	0.44110	0.25107	0.31633	0.46899	0.20329 
4915	40.950	-0.01246	0.77691	0.23762	-0.03271	0.43538	0.26139	0.23460	0.44107	0.25108	0.31634	0.46895	0.20329 
4916	40.958	-0.01244	0.77690	0.23764	-0.03270	0.43538	0.26141	0.23460	0.44104	0.25108	0.31635	0.46890	0.20329 
4917	40.967	-0.01243	0.77689	0.23766	-0.03269	0.43539	0.26143	0.23461	0.44099	0.25109	0.31636	0.46883	0.20330 
4918	40.975	-0.01243	0.77689	0.23768	-0.03269	0.43539	0.26144	0.23462	0.44094	0.25110	0.31637	0.46876	0.20331 
4919	40.983	-0.01242	0.77688	0.23770	-0.03269	0.43539	0.26145	0.23463	0.44088	0.25111	0.31638	0.46868	0.20331 
4920	40.992	-0.01242	0.77688	0.23771	-0.03269	0.43539	0.26146	0.23463	0.44081	0.25112	0.31639	0.46859	0.20332 
4921	41.000	-0.01242	0.77687	0.23773	-0.03270	0.43539	0.26147	0.23464	0.44074	0.25114	0.31641	0.46849	0.20333 
4922	41.008	-0.01242	0.77687	0.23774	-0.03270	0.43538	0.26148	0.23464	0.44066	0.25115	0.31643	0.46837	0.20334 
4923	41.017	-0.01242	0.77686	0.23775	-0.03270	0.43538	0.26148	0.23465	0.44056	0.25116	0.31645	0.46824	0.20335 
4924	41.025	-0.01243	0.77686	0.23776	-0.03271	0.43537	0.26148	0.23465	0.44046	0.25117	0.31647	0.46810	0.20337 
4925	41.033	-0.01243	0.77685	0.23776	-0.03271	0.43536	0.26148	0.23466	0.44035	0.25117	0.31650	0.46794	0.20339 
4926	41.042	-0.01244	0.77685	0.23777	-0.03271	0.43536	0.26148	0.23467	0.44022	0.25118	0.31653	0.46777	0.20342 
4927	41.050	-0.01245	0.77684	0.23777	-0.03272	0.43535	0.26148	0.23468	0.44008	0.25120	0.31657	0.46759	0.20344 
4928	41.058	-0.01245	0.77683	0.23778	-0.03272	0.43534	0.26147	0.23468	0.43993	0.25121	0.31660	0.46740	0.20348 
4929	41.067	-0.01246	0.77682	0.23778	-0.03273	0.43533	0.26147	0.23469	0.43978	0.25123	0.31663	0.46720	0.20351 
4930	41.075	-0.01247	0.77681	0.23778	-0.03273	0.43531	0.26146	0.23469	0.43962	0.25124	0.31667	0.46700	0.20354 
4931	41.083	-0.01247	0.77680	0.23778	-0.03274	0.43530	0.26145	0.23469	0.43945	0.25126	0.31669	0.46679	0.20356 
4932	41.092	-0.01248	0.77679	0.23778	-0.03276	0.43528	0.26144	0.23469	0.43929	0.25127	0.31672	0.46658	0.20358 
4933	41.100	-0.01249	0.77678	0.23778	-0.03278	0.43526	0.26142	0.23469	0.43912	0.25129	0.31675	0.46637	0.20360 
4934	41.108	-0.01250	0.77677	0.23778	-0.03280	0.43525	0.26141	0.23468	0.43895	0.25130	0.31677	0.46615	0.20361 
4935	41.117	-0.01252	0.77675	0.23777	-0.03282	0.43523	0.26139	0.23468	0.43877	0.25130	0.31679	0.46592	0.20361 
4936	41.125	-0.01253	0.77674	0.23777	-0.03284	0.43522	0.26137	0.23466	0.43860	0.25131	0.31680	0.46569	0.20362 
4937	41.133	-0.01255	0.77673	0.23776	-0.03287	0.43520	0.26135	0.23465	0.43841	0.25131	0.31682	0.46546	0.20363 
4938	41.142	-0.01257	0.77671	0.23775	-0.03290	0.43518	0.26133	0.23463	0.43823	0.25131	0.31683	0.46523	0.20364 
4939	41.150	-0.01259	0.77670	0.23774	-0.03292	0.43516	0.26130	0.23462	0.43803	0.25132	0.31684	0.46499	0.20366 
4940	41.158	-0.01261	0.77669	0.23773	-0.03296	0.43514	0.26128	0.23460	0.43784	0.25131	0.31685	0.46475	0.20367 
4941	41.167	-0.01264	0.77667	0.23771	-0.03299	0.43512	0.26125	0.23458	0.43765	0.25131	0.31686	0.46450	0.20368 
4942	41.175	-0.01266	0.77666	0.23770	-0.03302	0.43510	0.26123	0.23456	0.43745	0.25131	0.31686	0.46425	0.20370 
4943	41.183	-0.01269	0.77665	0.23768	-0.03306	0.43507	0.26120	0.23453	0.43726	0.25130	0.31685	0.46400	0.20370 
4944	41.192	-0.01273	0.77665	0.23766	-0.03310	0.43505	0.26116	0.23451	0.43706	0.25130	0.31685	0.46375	0.20371 
4945	41.200	-0.01277	0.77665	0.23764	-0.03313	0.43503	0.26113	0.23448	0.43687	0.25129	0.31684	0.46350	0.20372 
4946	41.208	-0.01282	0.77665	0.23761	-0.03317	0.43500	0.26110	0.23445	0.43667	0.25128	0.31684	0.46324	0.20374 
4947	41.217	-0.01287	0.77666	0.23757	-0.03321	0.43498	0.26106	0.23443	0.43647	0.25127	0.31684	0.46299	0.20375 
4948	41.225	-0.01292	0.77668	0.23754	-0.03324	0.43496	0.26103	0.23440	0.43627	0.25126	0.31683	0.46273	0.20377 
4949	41.233	-0.01296	0.77668	0.23751	-0.03328	0.43493	0.26100	0.23438	0.43607	0.25126	0.31683	0.46248	0.20379 
4950	41.242	-0.01299	0.77667	0.23748	-0.03332	0.43491	0.26096	0.23435	0.43588	0.25125	0.31683	0.46222	0.20381 
4951	41.250	-0.01302	0.77665	0.23745	-0.03335	0.43489	0.26092	0.23433	0.43568	0.25125	0.31683	0.46197	0.20382 
4952	41.258	-0.01304	0.77663	0.23743	-0.03339	0.43487	0.26089	0.23430	0.43549	0.25124	0.31683	0.46172	0.20384 
4953	41.267	-0.01307	0.77664	0.23739	-0.03343	0.43485	0.26085	0.23428	0.43530	0.25124	0.31683	0.46146	0.20386 
4954	41.275	-0.01311	0.77666	0.23734	-0.03347	0.43482	0.26081	0.23426	0.43511	0.25124	0.31683	0.46121	0.20387 
4955	41.283	-0.01314	0.77666	0.23730	-0.03351	0.43480	0.26077	0.23424	0.43492	0.25124	0.31683	0.46096	0.20388 
4956	41.292	-0.01315	0.77664	0.23727	-0.03355	0.43479	0.26072	0.23422	0.43473	0.25124	0.31683	0.46071	0.20389 
4957	41.300	-0.01316	0.77662	0.23723	-0.03358	0.43477	0.26068	0.23419	0.43454	0.25123	0.31682	0.46046	0.20389 
4958	41.308	-0.01317	0.77660	0.23719	-0.03362	0.43475	0.26063	0.23417	0.43436	0.25123	0.31682	0.46022	0.20388 
4959	41.317	-0.01317	0.77658	0.23716	-0.03366	0.43474	0.26059	0.23415	0.43418	0.25121	0.31681	0.45999	0.20387 
4960	41.325	-0.01317	0.77656	0.23712	-0.03370	0.43472	0.26054	0.23412	0.43400	0.25120	0.31681	0.45976	0.20386 
4961	41.333	-0.01318	0.77654	0.23708	-0.03373	0.43471	0.26049	0.23410	0.43382	0.25118	0.31680	0.45953	0.20384 
4962	41.342	-0.01317	0.77650	0.23704	-0.03376	0.43469	0.26043	0.23407	0.43365	0.25116	0.31680	0.45931	0.20383 
4963	41.350	-0.01314	0.77644	0.23702	-0.03379	0.43468	0.26038	0.23405	0.43348	0.25114	0.31679	0.45909	0.20381 
4964	41.358	-0.01312	0.77638	0.23699	-0.03382	0.43466	0.26033	0.23402	0.43331	0.25111	0.31678	0.45888	0.20378 
4965	41.367	-0.01310	0.77634	0.23695	-0.03385	0.43465	0.26027	0.23400	0.43314	0.25108	0.31678	0.45867	0.20376 
4966	41.375	-0.01310	0.77631	0.23690	-0.03388	0.43463	0.26021	0.23398	0.43298	0.25105	0.31677	0.45847	0.20373 
4967	41.383	-0.01310	0.77630	0.23685	-0.03391	0.43461	0.26015	0.23397	0.43283	0.25102	0.31676	0.45828	0.20369 
4968	41.392	-0.01310	0.77628	0.23679	-0.03393	0.43459	0.26008	0.23395	0.43268	0.25098	0.31675	0.45810	0.20366 
4969	41.400	-0.01308	0.77624	0.23675	-0.03396	0.43457	0.26002	0.23393	0.43255	0.25095	0.31674	0.45793	0.20362 
4970	41.408	-0.01306	0.77620	0.23670	-0.03399	0.43455	0.25995	0.23392	0.43242	0.25091	0.31674	0.45777	0.20359 
4971	41.417	-0.01305	0.77617	0.23664	-0.03402	0.43453	0.25988	0.23390	0.43229	0.25087	0.31673	0.45761	0.20354 
4972	41.425	-0.01304	0.77616	0.23658	-0.03405	0.43452	0.25981	0.23389	0.43217	0.25083	0.31673	0.45744	0.20350 
4973	41.433	-0.01304	0.77615	0.23652	-0.03408	0.43450	0.25974	0.23388	0.43205	0.25079	0.31674	0.45728	0.20346 
